<?xml version="1.0" encoding="iso-8859-1"?>
<!-- Generator: Adobe Illustrator 19.0.0, SVG Export Plug-In . SVG Version: 6.00 Build 0)  -->
<svg version="1.1" id="Capa_1" xmlns="http://www.w3.org/2000/svg" xmlns:xlink="http://www.w3.org/1999/xlink" x="0px" y="0px"
	 viewBox="0 0 251.732 251.732" style="enable-background:new 0 0 251.732 251.732;" xml:space="preserve">
<path d="M200.24,94.398c0.32-2.801,0.493-5.646,0.493-8.532c0-41.557-33.81-75.366-75.366-75.366S50,44.31,50,85.866
	c0,3.005,0.197,5.963,0.541,8.876C21.149,105.027,0,133.009,0,165.866c0,41.557,33.81,75.366,75.366,75.366
	c19.41,0,37.125-7.379,50.498-19.476c13.374,12.097,31.092,19.476,50.502,19.476c41.557,0,75.366-33.81,75.366-75.366
	C251.732,132.653,230.127,104.409,200.24,94.398z M125.366,40.5c25.015,0,45.366,20.352,45.366,45.366
	c0,1.653-0.103,3.281-0.277,4.888c-25.598,1.997-47.636,16.828-59.678,38.058C92.9,122.722,80,105.778,80,85.866
	C80,60.852,100.352,40.5,125.366,40.5z M75.366,211.232C50.352,211.232,30,190.881,30,165.866c0-19.6,12.497-36.335,29.94-42.662
	c9.126,15.919,23.892,28.199,41.559,34.113c-0.319,2.808-0.499,5.657-0.499,8.549c0,11.256,2.498,21.935,6.941,31.536
	C99.689,205.925,88.137,211.232,75.366,211.232z M176.366,211.232c-25.015,0-45.366-20.352-45.366-45.366
	s20.352-45.366,45.366-45.366s45.366,20.352,45.366,45.366S201.381,211.232,176.366,211.232z"/>
<g>
</g>
<g>
</g>
<g>
</g>
<g>
</g>
<g>
</g>
<g>
</g>
<g>
</g>
<g>
</g>
<g>
</g>
<g>
</g>
<g>
</g>
<g>
</g>
<g>
</g>
<g>
</g>
<g>
</g>
</svg>
